<?xml version="1.0" standalone="no"?>
<svg xmlns="http://www.w3.org/2000/svg" xmlns:xlink="http://www.w3.org/1999/xlink" width="496" height="249" stroke-linecap="round"><rect fill="white" width="496" height="249"/><g><path d="M146.792 19.237 M146.002 18.221 C213.576 13.121, 283.544 17.238, 425.828 14.01" stroke="rgb(0, 0, 0)" stroke-width="1" fill="none"/></g><g><path d="M210.494 63.578 M208.778 60.374 C256.511 66.849, 298.227 60.161, 371.514 67.578" stroke="rgb(0, 0, 0)" stroke-width="1" fill="none"/></g><g><path d="M145.829 114.859 M143.67 115.885 C158.6 110.956, 163.579 111.779, 179.517 109.554 M143.302 111.866 C151.628 113.661, 163.758 110.868, 174.414 113.093" stroke="rgb(0, 0, 0)" stroke-width="1" fill="none"/></g><g><path d="M191.834 111.329 M192.196 108.777 C269.128 113.718, 339.759 114.235, 382.933 115.001" stroke="rgb(0, 0, 0)" stroke-width="1" fill="none"/></g><g><path d="M402.157 112.716 M401.892 115.24 C407.231 108.726, 409.911 113.249, 423.502 109.168 M400.209 111.824 C407.444 111.797, 418.255 113.392, 422.831 113.838" stroke="rgb(0, 0, 0)" stroke-width="1" fill="none"/></g><g><path d="M85.914 140.145 M84.68 141.593 C114.581 147.229, 138.13 140.306, 165.922 141.159" stroke="rgb(0, 0, 0)" stroke-width="1" fill="none"/></g><g><path d="M166.724 147.192 M167.109 142.443 C181.938 143.466, 199.229 143.934, 247.319 145.713" stroke="rgb(0, 0, 0)" stroke-width="1" fill="none"/></g><g><path d="M246.773 145.485 M248.167 142.85 C268.292 141.736, 283.074 144.513, 324.476 143.532" stroke="rgb(0, 0, 0)" stroke-width="1" fill="none"/></g><g><path d="M324.556 142.343 M329.38 143.982 C344.595 145.754, 359.033 143.512, 408.935 147.271" stroke="rgb(0, 0, 0)" stroke-width="1" fill="none"/></g><g><path d="M406.827 145.347 M411.975 142.383 C426.136 143.684, 440.48 146.593, 489.232 146.139" stroke="rgb(0, 0, 0)" stroke-width="1" fill="none"/></g><g><path d="M143.502 13.657 M144.928 19.1 C142.191 45.51, 143.18 75.005, 140.227 111.19" stroke="rgb(0, 0, 0)" stroke-width="1" fill="none"/></g><g><path d="M169.299 161.146 M168.766 159.952 C171.19 176.168, 171.97 185.045, 168.057 204.017" stroke="rgb(0, 0, 0)" stroke-width="1" fill="none"/></g><g><path d="M409.597 161.033 M406.458 158.396 C405.754 176.348, 408.954 183.465, 411.637 207.546" stroke="rgb(0, 0, 0)" stroke-width="1" fill="none"/></g><g><path d="M423.082 18.255 M427.935 12.323 C423.744 39.357, 425.806 68.987, 426.159 110.48 M424.339 14.21 C425.464 47.645, 425.071 78.544, 425.385 112.973" stroke="rgb(0, 0, 0)" stroke-width="1" fill="none"/></g><g><path d="M171.941 145.397 M170.282 143.073 C183.447 122.102, 189.705 92.142, 209.263 65.793" stroke="rgb(0, 0, 0)" stroke-width="1" fill="none"/></g><g><path d="M371.035 64.197 M364.848 66.945 C381.035 92.476, 396.045 124.596, 409.24 145.56" stroke="rgb(0, 0, 0)" stroke-width="1" fill="none"/></g><g><path d="M167.857 152.191 C167.857 152.191, 167.857 152.191, 167.857 152.191 M167.857 152.191 C167.857 152.191, 167.857 152.191, 167.857 152.191 M165.633 160.779 C166.821 158.353, 167.848 156.039, 167.645 154.473 M164.769 159.205 C166.555 157.842, 167.18 155.17, 168.053 153.973 M160.637 165.691 C167.23 162.87, 167.692 157.785, 168.33 157.234 M163.193 165.142 C165.387 161.93, 167.468 159.093, 170.294 156.55 M166.131 163.029 C166.811 161.726, 169.62 159.593, 171.748 158.403 M165.484 164.495 C166.169 163.148, 166.987 161.612, 169.603 157.797 M168.577 162.962 C168.394 161.831, 170.351 161.063, 170.666 158.52 M166.999 164.542 C168.51 162.475, 169.569 160.5, 171.845 158.437 M169.157 164.572 C170.845 164.391, 170.923 161.567, 171.458 161.543 M169.355 164.447 C169.895 163.43, 170.397 162.261, 172.411 160.696 M171.509 164.325 C172.411 163.557, 172.339 162.817, 173.359 162.158 M171.381 164.525 C172.058 163.989, 172.425 163.358, 173.275 162.309" stroke="rgb(0, 0, 0)" stroke-width="0.771" fill="none"/><path d="M168.343 153.483 C168.999 153.717, 164.65 157.404, 162.459 163.55 M160.539 164.793 C167.644 165.304, 169.062 164.082, 175.725 162.087 M175.186 163.96 C173.43 160.278, 167.396 155.559, 166.195 150.928" stroke="rgb(0, 0, 0)" stroke-width="1" fill="none"/></g><g><path d="M408.038 151.948 C408.038 151.948, 408.038 151.948, 408.038 151.948 M408.038 151.948 C408.038 151.948, 408.038 151.948, 408.038 151.948 M405.351 158.362 C407.136 157.834, 407.721 155.158, 409.762 152.692 M404.032 158.994 C405.487 157.716, 407.844 155.009, 409.137 153.607 M403.32 163.791 C404.182 162.787, 407.76 158.616, 408.672 154.057 M402.016 163.349 C405.612 161.612, 406.925 158.866, 410.308 155.119 M406.611 163.216 C407.455 161.161, 408.166 159.828, 409.055 158.18 M405.408 164.764 C406.298 162.316, 408.694 161.057, 410.874 157.462 M407.154 163.562 C409.155 161.937, 410.36 159.845, 411.537 159.891 M406.744 165.005 C408.141 162.381, 409.231 159.831, 410.653 159.686 M409.391 164.544 C410.463 162.809, 409.915 162.264, 412.431 161.114 M409.534 163.929 C410.064 163.34, 410.573 162.664, 411.938 160.425 M411.614 163.905 C411.96 163.702, 412.585 162.085, 413.399 161.868 M411.401 164.373 C412.147 163.357, 412.258 162.669, 412.912 161.774 M413.132 164.245 C413.237 164.217, 413.472 163.888, 413.803 163.46 M413.131 164.409 C413.353 164.056, 413.444 163.997, 413.658 163.567" stroke="rgb(0, 0, 0)" stroke-width="1.371" fill="none"/><path d="M406.941 149.821 C407.005 155.199, 405.349 162.155, 404.826 165.636 M404.143 161.872 C404.412 164.808, 409.722 162.898, 412.888 164.187 M412.17 165.687 C411.675 158.978, 407.52 154.039, 408.044 150.766" stroke="rgb(0, 0, 0)" stroke-width="1" fill="none"/></g><g><path d="M83.127 143.117 C83.127 143.117, 83.127 143.117, 83.127 143.117 M83.127 143.117 C83.127 143.117, 83.127 143.117, 83.127 143.117 M83.053 145.895 C83.733 145.463, 86.754 142.379, 88.047 140.99 M83.053 145.895 C84.602 144.835, 85.541 143.697, 88.047 140.99 M84.406 147.273 C86.769 145.356, 91.417 140.945, 92.253 139.564 M84.406 147.273 C86.069 145.161, 88.522 143.862, 92.253 139.564 M85.759 148.65 C87.103 144.931, 89.808 143.941, 93.606 140.941 M85.759 148.65 C89.389 146.387, 92.007 142.762, 93.606 140.941 M86.399 150.728 C89.549 148.176, 93.455 145.286, 94.959 142.318 M86.399 150.728 C88.848 148.577, 88.91 146.478, 94.959 142.318 M91.319 148.601 C93.056 148.243, 94.049 144.736, 95.599 144.396 M91.319 148.601 C92.304 147.526, 94.092 145.445, 95.599 144.396" stroke="rgb(0, 0, 0)" stroke-width="0.957" fill="none"/><path d="M87.669 140.26 C88.607 139.803, 90.252 138.929, 91.32 139.01 C92.388 139.091, 93.506 139.684, 94.079 140.745 C94.651 141.806, 95.248 144.11, 94.756 145.375 C94.264 146.639, 92.385 147.439, 91.126 148.333 C89.867 149.226, 88.036 150.476, 87.201 150.737 C86.365 150.998, 86.848 150.724, 86.115 149.9 C85.382 149.075, 83.295 146.926, 82.802 145.791 C82.309 144.656, 81.839 144.403, 83.156 143.088 C84.473 141.773, 89.157 137.839, 90.703 137.901 C92.248 137.963, 92.702 143.106, 92.43 143.461" stroke="rgb(0, 0, 0)" stroke-width="1" fill="none"/></g><g><path d="M160.848 141.989 C160.848 141.989, 160.848 141.989, 160.848 141.989 M160.848 141.989 C160.848 141.989, 160.848 141.989, 160.848 141.989 M161.263 143.745 C161.736 142.424, 163.799 141.256, 164.675 140.09 M161.263 143.745 C162.582 143.145, 163.75 141.585, 164.675 140.09 M161.678 145.5 C163.545 143.649, 165.104 141.594, 166.455 140.384 M161.678 145.5 C163.148 144.453, 164.501 142.872, 166.455 140.384 M162.092 147.255 C164.922 146.297, 164.424 141.771, 168.235 140.677 M162.092 147.255 C163.583 146.48, 164.59 145.056, 168.235 140.677 M162.507 149.011 C163.381 146.339, 169.557 139.819, 172.744 138.047 M162.507 149.011 C164.613 145.759, 168.069 143.529, 172.744 138.047 M164.286 149.304 C168.174 147.249, 170.36 144.016, 173.841 139.072 M164.286 149.304 C167.658 147.15, 168.416 146.365, 173.841 139.072 M165.383 150.329 C169.906 145.206, 171.763 145.356, 174.938 140.096 M165.383 150.329 C167.5 148.684, 170.448 146.819, 174.938 140.096 M167.163 150.622 C171.373 148.921, 174.966 142.794, 175.353 141.852 M167.163 150.622 C169.781 148.909, 171.232 145.766, 175.353 141.852 M168.943 150.916 C171.232 147.683, 172.418 147.787, 176.45 142.876 M168.943 150.916 C171.244 147.75, 174.753 145.326, 176.45 142.876 M170.722 151.209 C170.784 151.098, 171.696 149.932, 174.817 146.824 M170.722 151.209 C172.753 149.594, 174.201 148.511, 174.817 146.824" stroke="rgb(0, 0, 0)" stroke-width="1.081" fill="none"/><path d="M165.05 139.718 C166.368 139.353, 168.127 139.992, 169.341 139.632 C170.555 139.273, 171.173 137.085, 172.334 137.562 C173.495 138.039, 175.971 141.052, 176.309 142.496 C176.647 143.939, 175.089 144.831, 174.361 146.224 C173.632 147.618, 173.158 150.117, 171.937 150.857 C170.715 151.597, 168.615 150.993, 167.032 150.663 C165.448 150.333, 163.438 150.355, 162.436 148.879 C161.434 147.403, 159.947 143.678, 161.02 141.805 C162.093 139.933, 166.85 138.289, 168.876 137.646 C170.901 137.002, 173.028 137.803, 173.174 137.946" stroke="rgb(0, 0, 0)" stroke-width="1" fill="none"/></g><g><path d="M202.134 60.064 C202.134 60.064, 202.134 60.064, 202.134 60.064 M202.134 60.064 C202.134 60.064, 202.134 60.064, 202.134 60.064 M203.149 61.855 C203.356 61.728, 204.248 60.074, 205.232 58.44 M203.149 61.855 C203.442 60.618, 204.338 59.871, 205.232 58.44 M203.643 64.499 C205.049 62.667, 207.945 58.749, 208.851 55.963 M203.643 64.499 C204.771 61.737, 206.654 61.517, 208.851 55.963 M204.137 67.144 C204.279 62.955, 205.221 60.784, 210.387 56.9 M204.137 67.144 C207.344 63.652, 208.385 60.118, 210.387 56.9 M205.152 68.934 C206.821 64.1, 210.004 60.736, 211.402 58.69 M205.152 68.934 C205.883 65.927, 209.214 62.135, 211.402 58.69 M206.688 69.871 C207.2 64.51, 212.489 62.57, 212.938 59.627 M206.688 69.871 C207.795 67.104, 210.337 63.286, 212.938 59.627 M207.703 71.662 C207.569 68.972, 211.627 67.01, 214.474 60.564 M207.703 71.662 C210.828 69.532, 212.48 64.57, 214.474 60.564" stroke="rgb(0, 0, 0)" stroke-width="1.576" fill="none"/><path d="M208.533 56.165 C210.031 56.199, 214.073 59.679, 214.858 60.776 C215.644 61.873, 213.726 61.673, 213.248 62.745 C212.771 63.818, 212.864 65.762, 211.995 67.212 C211.125 68.663, 209.345 71.194, 208.032 71.449 C206.719 71.704, 204.834 69.984, 204.114 68.743 C203.394 67.501, 204.019 65.483, 203.712 63.998 C203.405 62.513, 202.216 60.841, 202.274 59.834 C202.332 58.826, 202.52 58.309, 204.062 57.954 C205.604 57.598, 209.737 57.23, 211.528 57.7 C213.319 58.17, 214.749 60.298, 214.806 60.774" stroke="rgb(0, 0, 0)" stroke-width="1" fill="none"/></g><g><path d="M244.522 137.742 C244.522 137.742, 244.522 137.742, 244.522 137.742 M244.522 137.742 C244.522 137.742, 244.522 137.742, 244.522 137.742 M244.296 141.234 C245.438 140.41, 245.961 138.394, 246.574 137.946 M244.296 141.234 C244.736 140.373, 246.207 138.717, 246.574 137.946 M242.362 147.193 C241.981 146.611, 243.721 142.315, 248.625 138.15 M242.362 147.193 C245.154 144.284, 247.762 141.448, 248.625 138.15 M244.413 147.398 C245.85 143.413, 247.845 145.068, 250.677 138.355 M244.413 147.398 C247.302 144.289, 247.373 141.508, 250.677 138.355 M245.326 149.246 C247.085 144.761, 249.084 141.886, 251.589 140.204 M245.326 149.246 C246.235 147.545, 248.523 143.569, 251.589 140.204 M246.808 150.273 C248.056 144.907, 253.252 145.449, 253.071 141.23 M246.808 150.273 C248.567 146.559, 250.686 143.488, 253.071 141.23 M248.859 150.477 C251.096 148.394, 251.886 147.13, 253.414 143.901 M248.859 150.477 C249.49 148.506, 251.028 147.319, 253.414 143.901 M251.48 149.86 C252.015 149.073, 251.95 148.556, 252.619 148.215 M251.48 149.86 C251.712 149.219, 252.463 148.628, 252.619 148.215" stroke="rgb(0, 0, 0)" stroke-width="0.526" fill="none"/><path d="M244.639 137.574 C245.728 136.917, 248.708 137.34, 250.225 138.262 C251.742 139.184, 253.185 142.217, 253.74 143.106 C254.294 143.995, 253.789 142.487, 253.551 143.593 C253.313 144.699, 253.504 148.622, 252.311 149.743 C251.118 150.864, 247.813 150.745, 246.393 150.319 C244.973 149.894, 244.631 147.874, 243.789 147.189 C242.947 146.505, 241.286 146.987, 241.343 146.213 C241.4 145.439, 242.92 144.14, 244.131 142.543 C245.343 140.946, 247.619 137.326, 248.614 136.63 C249.608 135.935, 250.322 138.019, 250.1 138.37" stroke="rgb(0, 0, 0)" stroke-width="1" fill="none"/></g><g><path d="M321.72 141.647 C321.72 141.647, 321.72 141.647, 321.72 141.647 M321.72 141.647 C321.72 141.647, 321.72 141.647, 321.72 141.647 M322.441 143.316 C323.509 141.647, 325.228 139.686, 325.731 138.298 M322.441 143.316 C322.913 142.034, 324.297 141.391, 325.731 138.298 M323.161 144.984 C325.636 143.029, 326.462 139.413, 327 139.131 M323.161 144.984 C323.469 143.322, 324.825 142.449, 327 139.131 M324.43 145.816 C327.215 145.337, 327.129 143.08, 328.818 139.127 M324.43 145.816 C325.83 143.884, 327.86 140.624, 328.818 139.127 M325.151 147.485 C326.659 144.568, 327.567 144.144, 330.087 139.959 M325.151 147.485 C325.689 144.657, 327.351 143.747, 330.087 139.959 M326.42 148.317 C326.819 145.129, 330.272 142.573, 331.904 139.955 M326.42 148.317 C327.5 145.468, 330.536 143.135, 331.904 139.955 M327.14 149.986 C327.4 149.318, 330.673 145.653, 333.173 140.788 M327.14 149.986 C328.587 145.603, 332.401 142.869, 333.173 140.788 M328.409 150.818 C328.973 148.629, 332.097 147.373, 332.797 144.128 M328.409 150.818 C330.09 148.348, 330.211 147.185, 332.797 144.128 M330.775 149.978 C330.864 149.312, 332.136 147.84, 332.42 147.469 M330.775 149.978 C331.382 149.266, 331.695 148.913, 332.42 147.469" stroke="rgb(0, 0, 0)" stroke-width="1.533" fill="none"/><path d="M333.841 140.243 C334.177 140.968, 333.091 142.255, 332.837 143.621 C332.583 144.986, 333.156 147.36, 332.319 148.434 C331.481 149.508, 328.884 150.065, 327.813 150.064 C326.742 150.064, 326.775 149.411, 325.893 148.431 C325.012 147.45, 323.187 145.364, 322.525 144.181 C321.864 142.999, 321.319 142.339, 321.924 141.336 C322.529 140.333, 324.959 138.555, 326.155 138.164 C327.35 137.772, 328.08 138.123, 329.098 138.989 C330.117 139.855, 331.485 142.14, 332.265 143.361 C333.046 144.582, 333.935 146.386, 333.779 146.315 M325.694 136.34 C326.937 136.481, 332.326 138.123, 333.286 139.341 C334.246 140.559, 331.29 141.877, 331.453 143.647 C331.616 145.417, 334.688 149.397, 334.264 149.961 C333.84 150.524, 330.414 147.504, 328.91 147.026 C327.406 146.547, 326.322 147.282, 325.24 147.09 C324.158 146.899, 322.7 146.523, 322.419 145.876 C322.138 145.23, 322.85 144.024, 323.554 143.21 C324.257 142.396, 325.708 141.515, 326.64 140.992 C327.573 140.47, 328.427 140.924, 329.149 140.077 C329.87 139.23, 331.185 135.883, 330.969 135.913" stroke="rgb(0, 0, 0)" stroke-width="1" fill="none"/></g><g><path d="M361.51 58.86 C361.51 58.86, 361.51 58.86, 361.51 58.86 M361.51 58.86 C361.51 58.86, 361.51 58.86, 361.51 58.86 M362.547 60.639 C362.681 60.292, 362.93 60.089, 363.057 59.779 M362.547 60.639 C362.72 60.39, 362.727 60.163, 363.057 59.779 M363.583 62.417 C364.584 61.219, 364.227 60.814, 365.115 59.838 M363.583 62.417 C363.913 61.507, 364.719 61.21, 365.115 59.838 M364.62 64.196 C364.449 63.451, 366.913 61.275, 367.173 59.897 M364.62 64.196 C364.969 63.61, 366.256 62.548, 367.173 59.897 M368.705 57.318 C368.705 57.318, 368.705 57.318, 368.705 57.318 M368.705 57.318 C368.705 57.318, 368.705 57.318, 368.705 57.318 M364.125 68.554 C368.742 63.949, 367.865 59.715, 370.252 58.237 M364.125 68.554 C366.613 67.403, 367.696 64.559, 370.252 58.237 M366.182 68.613 C370.343 66.228, 369.341 59.858, 371.8 59.156 M366.182 68.613 C368.083 66.407, 368.429 62.587, 371.8 59.156 M367.73 69.532 C371.104 67.509, 373.001 64.227, 372.836 60.935 M367.73 69.532 C369.654 66.302, 371.854 63.623, 372.836 60.935 M370.298 68.732 C372.309 67, 373.918 64.269, 373.873 62.713 M370.298 68.732 C372.082 66.235, 373.585 64.613, 373.873 62.713" stroke="rgb(0, 0, 0)" stroke-width="0.878" fill="none"/><path d="M367.766 59.79 C368.481 59.089, 367.781 56.851, 368.547 56.904 C369.313 56.957, 371.575 58.938, 372.362 60.105 C373.148 61.272, 373.656 62.587, 373.266 63.904 C372.877 65.221, 371.138 67.248, 370.025 68.009 C368.911 68.77, 367.775 68.594, 366.584 68.471 C365.393 68.347, 363.374 68.175, 362.881 67.268 C362.388 66.362, 363.887 64.381, 363.626 63.033 C363.366 61.686, 360.332 60.146, 361.318 59.184 C362.304 58.222, 367.897 57.065, 369.542 57.261 C371.186 57.456, 371.032 60.362, 371.185 60.357" stroke="rgb(0, 0, 0)" stroke-width="1" fill="none"/></g><g><path d="M407.986 136.671 C407.986 136.671, 407.986 136.671, 407.986 136.671 M407.986 136.671 C407.986 136.671, 407.986 136.671, 407.986 136.671 M401.036 146.655 C400.912 144.982, 406.038 142.756, 409.415 138.064 M401.036 146.655 C404.31 144.592, 405.725 142.791, 409.415 138.064 M403.163 147.332 C405.831 146.842, 405.967 145.053, 411.541 138.741 M403.163 147.332 C405.93 143.798, 408.472 141.791, 411.541 138.741 M404.591 148.725 C404.935 145.9, 410.09 144.534, 412.271 140.85 M404.591 148.725 C407.049 145.987, 408.61 145.334, 412.271 140.85 M405.321 150.834 C406.008 148.45, 411.087 144.351, 413.699 142.243 M405.321 150.834 C408.833 148.717, 411.857 145.211, 413.699 142.243 M406.051 152.943 C407.563 149.218, 410.303 145.855, 413.731 145.068 M406.051 152.943 C407.616 151.163, 411.631 148.661, 413.731 145.068 M410.272 151.472 C411.168 149.964, 412.237 149.365, 413.763 147.892 M410.272 151.472 C411.878 150.343, 413.27 148.463, 413.763 147.892" stroke="rgb(0, 0, 0)" stroke-width="0.987" fill="none"/><path d="M402.876 142.217 C403.764 141.198, 406.851 137.124, 408.15 136.503 C409.449 135.882, 409.842 137.542, 410.67 138.491 C411.497 139.439, 412.691 140.692, 413.116 142.196 C413.54 143.7, 413.219 146.264, 413.218 147.514 C413.218 148.765, 414.385 148.969, 413.112 149.699 C411.839 150.429, 407.152 152.138, 405.579 151.895 C404.007 151.653, 404.499 149.246, 403.677 148.244 C402.855 147.242, 399.847 147.388, 400.648 145.883 C401.45 144.379, 406.934 140.235, 408.488 139.219 C410.043 138.203, 410.067 139.748, 409.975 139.786" stroke="rgb(0, 0, 0)" stroke-width="1" fill="none"/></g><g><path d="M481.799 140.108 C481.799 140.108, 481.799 140.108, 481.799 140.108 M481.799 140.108 C481.799 140.108, 481.799 140.108, 481.799 140.108 M482.314 142.039 C482.726 141.241, 484.168 140.388, 484.437 139.92 M482.314 142.039 C483.156 141.62, 483.731 140.411, 484.437 139.92 M482.829 143.971 C486.195 143.924, 485.302 139.56, 489.906 136.906 M482.829 143.971 C484.357 142.128, 487.148 139.735, 489.906 136.906 M483.343 145.902 C487.565 142.694, 488.955 142.806, 490.421 138.837 M483.343 145.902 C486.25 142.996, 488.559 140.809, 490.421 138.837 M483.858 147.833 C485.052 145.061, 489.403 144.391, 490.936 140.768 M483.858 147.833 C485.742 146.423, 487.931 144.127, 490.936 140.768 M485.081 149.058 C485.461 147.936, 488.245 147.591, 492.158 141.993 M485.081 149.058 C487.129 148.143, 489.23 144.972, 492.158 141.993 M487.719 148.869 C489.751 148.198, 491.601 144.073, 493.381 143.218 M487.719 148.869 C489.239 146.879, 491.037 145.512, 493.381 143.218 M491.064 147.975 C492.148 147.791, 493.536 146.013, 494.603 144.442 M491.064 147.975 C492.364 147.007, 493.15 145.713, 494.603 144.442" stroke="rgb(0, 0, 0)" stroke-width="1.241" fill="none"/><path d="M490.483 140.713 C491.475 141.705, 493.889 142.341, 494.258 143.517 C494.628 144.693, 493.842 146.838, 492.7 147.768 C491.557 148.698, 488.535 148.76, 487.405 149.097 C486.274 149.433, 486.465 149.937, 485.918 149.79 C485.372 149.642, 484.863 149.773, 484.124 148.212 C483.385 146.651, 481.229 141.788, 481.484 140.423 C481.738 139.059, 484.211 140.651, 485.649 140.025 C487.087 139.399, 488.787 136.094, 490.114 136.669 C491.441 137.243, 492.705 141.867, 493.611 143.474 C494.517 145.081, 495.315 146.312, 495.55 146.311 M488.259 137.543 C489.368 136.92, 488.884 139.51, 489.762 140.449 C490.639 141.387, 493.198 142.658, 493.523 143.175 C493.847 143.692, 492.144 142.836, 491.71 143.549 C491.275 144.261, 491.268 146.702, 490.916 147.448 C490.563 148.194, 490.149 147.534, 489.594 148.022 C489.04 148.51, 489.041 150.814, 487.59 150.374 C486.139 149.934, 482.008 146.89, 480.886 145.383 C479.764 143.876, 480.099 142.789, 480.86 141.334 C481.621 139.878, 485.188 137.184, 485.452 136.648 C485.715 136.112, 482.441 137.439, 482.44 138.116" stroke="rgb(0, 0, 0)" stroke-width="1" fill="none"/></g><g class="text-container" transform="matrix(1 0 0 1 8 16)"><text x="224" y="20" style="font-style: normal;font-weight: 400;font-size: 16px;font-family: Comic Sans MS, cursive;" stroke="none" stroke-width="1px" fill="rgb(0, 0, 0)" text-anchor="middle" dominant-baseline="auto">f</text></g><g class="text-container" transform="matrix(1 0 0 1 8 16)"><text x="232" y="20" style="font-style: normal;font-weight: 400;font-size: 16px;font-family: Comic Sans MS, cursive;" stroke="none" stroke-width="1px" fill="rgb(0, 0, 0)" text-anchor="middle" dominant-baseline="auto">e</text></g><g class="text-container" transform="matrix(1 0 0 1 8 16)"><text x="240" y="20" style="font-style: normal;font-weight: 400;font-size: 16px;font-family: Comic Sans MS, cursive;" stroke="none" stroke-width="1px" fill="rgb(0, 0, 0)" text-anchor="middle" dominant-baseline="auto">a</text></g><g class="text-container" transform="matrix(1 0 0 1 8 16)"><text x="248" y="20" style="font-style: normal;font-weight: 400;font-size: 16px;font-family: Comic Sans MS, cursive;" stroke="none" stroke-width="1px" fill="rgb(0, 0, 0)" text-anchor="middle" dominant-baseline="auto">t</text></g><g class="text-container" transform="matrix(1 0 0 1 8 16)"><text x="256" y="20" style="font-style: normal;font-weight: 400;font-size: 16px;font-family: Comic Sans MS, cursive;" stroke="none" stroke-width="1px" fill="rgb(0, 0, 0)" text-anchor="middle" dominant-baseline="auto">u</text></g><g class="text-container" transform="matrix(1 0 0 1 8 16)"><text x="264" y="20" style="font-style: normal;font-weight: 400;font-size: 16px;font-family: Comic Sans MS, cursive;" stroke="none" stroke-width="1px" fill="rgb(0, 0, 0)" text-anchor="middle" dominant-baseline="auto">r</text></g><g class="text-container" transform="matrix(1 0 0 1 8 16)"><text x="272" y="20" style="font-style: normal;font-weight: 400;font-size: 16px;font-family: Comic Sans MS, cursive;" stroke="none" stroke-width="1px" fill="rgb(0, 0, 0)" text-anchor="middle" dominant-baseline="auto">e</text></g><g class="text-container" transform="matrix(1 0 0 1 8 16)"><text x="288" y="20" style="font-style: normal;font-weight: 400;font-size: 16px;font-family: Comic Sans MS, cursive;" stroke="none" stroke-width="1px" fill="rgb(0, 0, 0)" text-anchor="middle" dominant-baseline="auto">b</text></g><g class="text-container" transform="matrix(1 0 0 1 8 16)"><text x="296" y="20" style="font-style: normal;font-weight: 400;font-size: 16px;font-family: Comic Sans MS, cursive;" stroke="none" stroke-width="1px" fill="rgb(0, 0, 0)" text-anchor="middle" dominant-baseline="auto">r</text></g><g class="text-container" transform="matrix(1 0 0 1 8 16)"><text x="304" y="20" style="font-style: normal;font-weight: 400;font-size: 16px;font-family: Comic Sans MS, cursive;" stroke="none" stroke-width="1px" fill="rgb(0, 0, 0)" text-anchor="middle" dominant-baseline="auto">a</text></g><g class="text-container" transform="matrix(1 0 0 1 8 16)"><text x="312" y="20" style="font-style: normal;font-weight: 400;font-size: 16px;font-family: Comic Sans MS, cursive;" stroke="none" stroke-width="1px" fill="rgb(0, 0, 0)" text-anchor="middle" dominant-baseline="auto">n</text></g><g class="text-container" transform="matrix(1 0 0 1 8 16)"><text x="320" y="20" style="font-style: normal;font-weight: 400;font-size: 16px;font-family: Comic Sans MS, cursive;" stroke="none" stroke-width="1px" fill="rgb(0, 0, 0)" text-anchor="middle" dominant-baseline="auto">c</text></g><g class="text-container" transform="matrix(1 0 0 1 8 16)"><text x="328" y="20" style="font-style: normal;font-weight: 400;font-size: 16px;font-family: Comic Sans MS, cursive;" stroke="none" stroke-width="1px" fill="rgb(0, 0, 0)" text-anchor="middle" dominant-baseline="auto">h</text></g><g class="text-container" transform="matrix(1 0 0 1 8 16)"><text x="104" y="212" style="font-style: normal;font-weight: 400;font-size: 16px;font-family: Comic Sans MS, cursive;" stroke="none" stroke-width="1px" fill="rgb(0, 0, 0)" text-anchor="middle" dominant-baseline="auto">w</text></g><g class="text-container" transform="matrix(1 0 0 1 8 16)"><text x="112" y="212" style="font-style: normal;font-weight: 400;font-size: 16px;font-family: Comic Sans MS, cursive;" stroke="none" stroke-width="1px" fill="rgb(0, 0, 0)" text-anchor="middle" dominant-baseline="auto">e</text></g><g class="text-container" transform="matrix(1 0 0 1 8 16)"><text x="128" y="212" style="font-style: normal;font-weight: 400;font-size: 16px;font-family: Comic Sans MS, cursive;" stroke="none" stroke-width="1px" fill="rgb(0, 0, 0)" text-anchor="middle" dominant-baseline="auto">n</text></g><g class="text-container" transform="matrix(1 0 0 1 8 16)"><text x="136" y="212" style="font-style: normal;font-weight: 400;font-size: 16px;font-family: Comic Sans MS, cursive;" stroke="none" stroke-width="1px" fill="rgb(0, 0, 0)" text-anchor="middle" dominant-baseline="auto">e</text></g><g class="text-container" transform="matrix(1 0 0 1 8 16)"><text x="144" y="212" style="font-style: normal;font-weight: 400;font-size: 16px;font-family: Comic Sans MS, cursive;" stroke="none" stroke-width="1px" fill="rgb(0, 0, 0)" text-anchor="middle" dominant-baseline="auto">e</text></g><g class="text-container" transform="matrix(1 0 0 1 8 16)"><text x="152" y="212" style="font-style: normal;font-weight: 400;font-size: 16px;font-family: Comic Sans MS, cursive;" stroke="none" stroke-width="1px" fill="rgb(0, 0, 0)" text-anchor="middle" dominant-baseline="auto">d</text></g><g class="text-container" transform="matrix(1 0 0 1 8 16)"><text x="168" y="212" style="font-style: normal;font-weight: 400;font-size: 16px;font-family: Comic Sans MS, cursive;" stroke="none" stroke-width="1px" fill="rgb(0, 0, 0)" text-anchor="middle" dominant-baseline="auto">a</text></g><g class="text-container" transform="matrix(1 0 0 1 8 16)"><text x="184" y="212" style="font-style: normal;font-weight: 400;font-size: 16px;font-family: Comic Sans MS, cursive;" stroke="none" stroke-width="1px" fill="rgb(0, 0, 0)" text-anchor="middle" dominant-baseline="auto">n</text></g><g class="text-container" transform="matrix(1 0 0 1 8 16)"><text x="192" y="212" style="font-style: normal;font-weight: 400;font-size: 16px;font-family: Comic Sans MS, cursive;" stroke="none" stroke-width="1px" fill="rgb(0, 0, 0)" text-anchor="middle" dominant-baseline="auto">e</text></g><g class="text-container" transform="matrix(1 0 0 1 8 16)"><text x="200" y="212" style="font-style: normal;font-weight: 400;font-size: 16px;font-family: Comic Sans MS, cursive;" stroke="none" stroke-width="1px" fill="rgb(0, 0, 0)" text-anchor="middle" dominant-baseline="auto">w</text></g><g class="text-container" transform="matrix(1 0 0 1 8 16)"><text x="320" y="212" style="font-style: normal;font-weight: 400;font-size: 16px;font-family: Comic Sans MS, cursive;" stroke="none" stroke-width="1px" fill="rgb(0, 0, 0)" text-anchor="middle" dominant-baseline="auto">w</text></g><g class="text-container" transform="matrix(1 0 0 1 8 16)"><text x="328" y="212" style="font-style: normal;font-weight: 400;font-size: 16px;font-family: Comic Sans MS, cursive;" stroke="none" stroke-width="1px" fill="rgb(0, 0, 0)" text-anchor="middle" dominant-baseline="auto">e</text></g><g class="text-container" transform="matrix(1 0 0 1 8 16)"><text x="344" y="212" style="font-style: normal;font-weight: 400;font-size: 16px;font-family: Comic Sans MS, cursive;" stroke="none" stroke-width="1px" fill="rgb(0, 0, 0)" text-anchor="middle" dominant-baseline="auto">w</text></g><g class="text-container" transform="matrix(1 0 0 1 8 16)"><text x="352" y="212" style="font-style: normal;font-weight: 400;font-size: 16px;font-family: Comic Sans MS, cursive;" stroke="none" stroke-width="1px" fill="rgb(0, 0, 0)" text-anchor="middle" dominant-baseline="auto">a</text></g><g class="text-container" transform="matrix(1 0 0 1 8 16)"><text x="360" y="212" style="font-style: normal;font-weight: 400;font-size: 16px;font-family: Comic Sans MS, cursive;" stroke="none" stroke-width="1px" fill="rgb(0, 0, 0)" text-anchor="middle" dominant-baseline="auto">n</text></g><g class="text-container" transform="matrix(1 0 0 1 8 16)"><text x="368" y="212" style="font-style: normal;font-weight: 400;font-size: 16px;font-family: Comic Sans MS, cursive;" stroke="none" stroke-width="1px" fill="rgb(0, 0, 0)" text-anchor="middle" dominant-baseline="auto">t</text></g><g class="text-container" transform="matrix(1 0 0 1 8 16)"><text x="384" y="212" style="font-style: normal;font-weight: 400;font-size: 16px;font-family: Comic Sans MS, cursive;" stroke="none" stroke-width="1px" fill="rgb(0, 0, 0)" text-anchor="middle" dominant-baseline="auto">t</text></g><g class="text-container" transform="matrix(1 0 0 1 8 16)"><text x="392" y="212" style="font-style: normal;font-weight: 400;font-size: 16px;font-family: Comic Sans MS, cursive;" stroke="none" stroke-width="1px" fill="rgb(0, 0, 0)" text-anchor="middle" dominant-baseline="auto">o</text></g><g class="text-container" transform="matrix(1 0 0 1 8 16)"><text x="408" y="212" style="font-style: normal;font-weight: 400;font-size: 16px;font-family: Comic Sans MS, cursive;" stroke="none" stroke-width="1px" fill="rgb(0, 0, 0)" text-anchor="middle" dominant-baseline="auto">m</text></g><g class="text-container" transform="matrix(1 0 0 1 8 16)"><text x="416" y="212" style="font-style: normal;font-weight: 400;font-size: 16px;font-family: Comic Sans MS, cursive;" stroke="none" stroke-width="1px" fill="rgb(0, 0, 0)" text-anchor="middle" dominant-baseline="auto">e</text></g><g class="text-container" transform="matrix(1 0 0 1 8 16)"><text x="424" y="212" style="font-style: normal;font-weight: 400;font-size: 16px;font-family: Comic Sans MS, cursive;" stroke="none" stroke-width="1px" fill="rgb(0, 0, 0)" text-anchor="middle" dominant-baseline="auto">r</text></g><g class="text-container" transform="matrix(1 0 0 1 8 16)"><text x="432" y="212" style="font-style: normal;font-weight: 400;font-size: 16px;font-family: Comic Sans MS, cursive;" stroke="none" stroke-width="1px" fill="rgb(0, 0, 0)" text-anchor="middle" dominant-baseline="auto">g</text></g><g class="text-container" transform="matrix(1 0 0 1 8 16)"><text x="440" y="212" style="font-style: normal;font-weight: 400;font-size: 16px;font-family: Comic Sans MS, cursive;" stroke="none" stroke-width="1px" fill="rgb(0, 0, 0)" text-anchor="middle" dominant-baseline="auto">e</text></g><g class="text-container" transform="matrix(1 0 0 1 8 16)"><text x="456" y="212" style="font-style: normal;font-weight: 400;font-size: 16px;font-family: Comic Sans MS, cursive;" stroke="none" stroke-width="1px" fill="rgb(0, 0, 0)" text-anchor="middle" dominant-baseline="auto">h</text></g><g class="text-container" transform="matrix(1 0 0 1 8 16)"><text x="464" y="212" style="font-style: normal;font-weight: 400;font-size: 16px;font-family: Comic Sans MS, cursive;" stroke="none" stroke-width="1px" fill="rgb(0, 0, 0)" text-anchor="middle" dominant-baseline="auto">e</text></g><g class="text-container" transform="matrix(1 0 0 1 8 16)"><text x="472" y="212" style="font-style: normal;font-weight: 400;font-size: 16px;font-family: Comic Sans MS, cursive;" stroke="none" stroke-width="1px" fill="rgb(0, 0, 0)" text-anchor="middle" dominant-baseline="auto">r</text></g><g class="text-container" transform="matrix(1 0 0 1 8 16)"><text x="480" y="212" style="font-style: normal;font-weight: 400;font-size: 16px;font-family: Comic Sans MS, cursive;" stroke="none" stroke-width="1px" fill="rgb(0, 0, 0)" text-anchor="middle" dominant-baseline="auto">e</text></g><g class="text-container" transform="matrix(1 0 0 1 8 16)"><text x="104" y="228" style="font-style: normal;font-weight: 400;font-size: 16px;font-family: Comic Sans MS, cursive;" stroke="none" stroke-width="1px" fill="rgb(0, 0, 0)" text-anchor="middle" dominant-baseline="auto">f</text></g><g class="text-container" transform="matrix(1 0 0 1 8 16)"><text x="112" y="228" style="font-style: normal;font-weight: 400;font-size: 16px;font-family: Comic Sans MS, cursive;" stroke="none" stroke-width="1px" fill="rgb(0, 0, 0)" text-anchor="middle" dominant-baseline="auto">e</text></g><g class="text-container" transform="matrix(1 0 0 1 8 16)"><text x="120" y="228" style="font-style: normal;font-weight: 400;font-size: 16px;font-family: Comic Sans MS, cursive;" stroke="none" stroke-width="1px" fill="rgb(0, 0, 0)" text-anchor="middle" dominant-baseline="auto">a</text></g><g class="text-container" transform="matrix(1 0 0 1 8 16)"><text x="128" y="228" style="font-style: normal;font-weight: 400;font-size: 16px;font-family: Comic Sans MS, cursive;" stroke="none" stroke-width="1px" fill="rgb(0, 0, 0)" text-anchor="middle" dominant-baseline="auto">t</text></g><g class="text-container" transform="matrix(1 0 0 1 8 16)"><text x="136" y="228" style="font-style: normal;font-weight: 400;font-size: 16px;font-family: Comic Sans MS, cursive;" stroke="none" stroke-width="1px" fill="rgb(0, 0, 0)" text-anchor="middle" dominant-baseline="auto">u</text></g><g class="text-container" transform="matrix(1 0 0 1 8 16)"><text x="144" y="228" style="font-style: normal;font-weight: 400;font-size: 16px;font-family: Comic Sans MS, cursive;" stroke="none" stroke-width="1px" fill="rgb(0, 0, 0)" text-anchor="middle" dominant-baseline="auto">r</text></g><g class="text-container" transform="matrix(1 0 0 1 8 16)"><text x="152" y="228" style="font-style: normal;font-weight: 400;font-size: 16px;font-family: Comic Sans MS, cursive;" stroke="none" stroke-width="1px" fill="rgb(0, 0, 0)" text-anchor="middle" dominant-baseline="auto">e</text></g><g class="text-container" transform="matrix(1 0 0 1 8 16)"><text x="168" y="228" style="font-style: normal;font-weight: 400;font-size: 16px;font-family: Comic Sans MS, cursive;" stroke="none" stroke-width="1px" fill="rgb(0, 0, 0)" text-anchor="middle" dominant-baseline="auto">b</text></g><g class="text-container" transform="matrix(1 0 0 1 8 16)"><text x="176" y="228" style="font-style: normal;font-weight: 400;font-size: 16px;font-family: Comic Sans MS, cursive;" stroke="none" stroke-width="1px" fill="rgb(0, 0, 0)" text-anchor="middle" dominant-baseline="auto">r</text></g><g class="text-container" transform="matrix(1 0 0 1 8 16)"><text x="184" y="228" style="font-style: normal;font-weight: 400;font-size: 16px;font-family: Comic Sans MS, cursive;" stroke="none" stroke-width="1px" fill="rgb(0, 0, 0)" text-anchor="middle" dominant-baseline="auto">a</text></g><g class="text-container" transform="matrix(1 0 0 1 8 16)"><text x="192" y="228" style="font-style: normal;font-weight: 400;font-size: 16px;font-family: Comic Sans MS, cursive;" stroke="none" stroke-width="1px" fill="rgb(0, 0, 0)" text-anchor="middle" dominant-baseline="auto">n</text></g><g class="text-container" transform="matrix(1 0 0 1 8 16)"><text x="200" y="228" style="font-style: normal;font-weight: 400;font-size: 16px;font-family: Comic Sans MS, cursive;" stroke="none" stroke-width="1px" fill="rgb(0, 0, 0)" text-anchor="middle" dominant-baseline="auto">c</text></g><g class="text-container" transform="matrix(1 0 0 1 8 16)"><text x="208" y="228" style="font-style: normal;font-weight: 400;font-size: 16px;font-family: Comic Sans MS, cursive;" stroke="none" stroke-width="1px" fill="rgb(0, 0, 0)" text-anchor="middle" dominant-baseline="auto">h</text></g></svg>